<?xml version="1.0" encoding="utf-8"?>
<!-- Generator: Adobe Illustrator 16.0.0, SVG Export Plug-In . SVG Version: 6.00 Build 0)  -->
<!DOCTYPE svg PUBLIC "-//W3C//DTD SVG 1.1//EN" "http://www.w3.org/Graphics/SVG/1.1/DTD/svg11.dtd">
<svg version="1.1" id="Layer_1" xmlns="http://www.w3.org/2000/svg" xmlns:xlink="http://www.w3.org/1999/xlink" x="0px" y="0px"
	 width="1011.059px" height="70.192px" viewBox="0 0 1011.059 70.192" enable-background="new 0 0 1011.059 70.192"
	 xml:space="preserve">
<g>
	<g>
		<path fill="#787878" d="M25.642,57.586H5.636v-0.579h0.726c1.355,0,2.524-0.488,3.504-1.465c0.98-0.977,1.471-2.441,1.471-4.396
			V10.925c0-1.904-0.454-3.383-1.361-4.431C9.066,5.445,7.838,4.921,6.289,4.921H5.636V4.306h17.465
			c2.299,0,4.416,0.331,6.354,0.994c1.937,0.665,3.576,1.58,4.92,2.751c1.343,1.168,2.378,2.494,3.104,3.977
			c0.727,1.483,1.09,3.093,1.09,4.829c0,3.208-1.041,5.812-3.122,7.813c-2.082,2.003-4.878,3.472-8.388,4.413v0.145
			c1.598,0.169,3.135,0.422,4.611,0.759c1.477,0.339,2.808,0.809,3.994,1.412c1.186,0.603,2.299,1.387,3.34,2.35
			c0.944,0.869,1.743,1.822,2.396,2.858c0.653,1.037,1.149,2.164,1.488,3.382c0.339,1.219,0.509,2.466,0.509,3.744
			c0,2.772-0.721,5.16-2.16,7.161c-1.44,2.002-3.068,3.521-4.884,4.558C33.762,56.875,30.192,57.586,25.642,57.586z M16.854,28.757
			h3.485c2.856,0,4.89-0.289,6.101-0.867c0.774-0.386,1.579-0.916,2.415-1.591c0.835-0.677,1.633-1.738,2.396-3.184
			c0.763-1.447,1.144-3.195,1.144-5.246c0-1.591-0.254-3.104-0.762-4.539c-0.509-1.435-1.247-2.706-2.215-3.816
			c-0.969-1.108-2.119-1.977-3.45-2.604c-1.332-0.626-2.784-0.939-4.357-0.939c-1.38,0-2.966,0.265-4.757,0.795V28.757z
			 M22.338,30.385h-5.483v19.207c0,1.278,0.128,2.345,0.382,3.201c0.254,0.855,0.949,1.599,2.088,2.225
			c1.137,0.627,2.892,0.94,5.265,0.94c4.913,0,8.411-1.628,10.493-4.883c1.427-2.243,2.142-4.763,2.142-7.56
			c0-2.026-0.357-3.858-1.07-5.498c-0.715-1.641-1.695-3.009-2.941-4.105c-1.247-1.098-2.813-1.96-4.703-2.587
			C26.622,30.698,24.564,30.385,22.338,30.385z"/>
		<path fill="#787878" d="M204.487,28.685V10.853c0-1.735-0.472-3.159-1.416-4.269c-0.943-1.108-2.408-1.663-4.394-1.663V4.306
			h17.03v0.615c-1.985,0-3.438,0.549-4.357,1.646s-1.38,2.526-1.38,4.286v40.294c0,3.907,1.913,5.86,5.738,5.86v0.579h-17.03v-0.579
			c1.816,0,3.238-0.488,4.267-1.465c1.028-0.977,1.543-2.417,1.543-4.323V30.312h-30.645v20.834c0,1.857,0.527,3.298,1.581,4.323
			c1.053,1.025,2.461,1.537,4.229,1.537v0.579h-17.028v-0.579c1.839,0,3.249-0.512,4.229-1.537s1.471-2.466,1.471-4.323V10.853
			c0-3.954-1.9-5.932-5.7-5.932V4.306h17.028v0.615c-2.01,0-3.479,0.549-4.411,1.646c-0.933,1.097-1.399,2.526-1.399,4.286v17.832
			H204.487z"/>
		<path fill="#787878" d="M305.776,16.242h-0.618c-0.46-2.604-1.688-4.811-3.685-6.619c-1.997-1.809-4.291-3.129-6.881-3.961
			c-2.589-0.832-5.009-1.248-7.26-1.248c-3.075,0-5.961,0.646-8.66,1.936s-5.028,3.11-6.989,5.461
			c-1.961,2.352-3.485,5.174-4.575,8.464c-1.089,3.292-1.634,6.867-1.634,10.726c0,3.738,0.526,7.203,1.58,10.398
			c1.053,3.196,2.59,5.969,4.611,8.32c2.021,2.351,4.363,4.129,7.026,5.335c2.662,1.206,5.615,1.808,8.858,1.808
			c2.71,0,5.688-0.548,8.933-1.646c3.243-1.097,6.172-2.924,8.786-5.479v2.062c-3.219,2.482-6.167,4.304-8.841,5.462
			c-2.674,1.156-6.008,1.735-10.002,1.735c-4.212,0-8.055-0.766-11.528-2.297c-3.474-1.53-6.408-3.599-8.805-6.203
			s-4.212-5.534-5.446-8.79c-1.234-3.255-1.852-6.606-1.852-10.056c0-5.184,1.283-10.001,3.849-14.449
			c2.565-4.449,6.039-7.969,10.421-10.562c4.38-2.593,9.137-3.89,14.27-3.89c3.17,0,6.547,0.471,10.13,1.41l3.775,1.05
			c0.727,0.145,1.344,0.217,1.852,0.217c0.944,0,1.573-0.139,1.889-0.416c0.314-0.276,0.557-0.777,0.727-1.5h0.58L305.776,16.242z"
			/>
		<path fill="#787878" d="M372.067,31c0,4.991-1.241,9.635-3.722,13.927c-2.481,4.292-5.864,7.71-10.148,10.255
			c-4.284,2.542-9.029,3.814-14.233,3.814c-5.228,0-10.021-1.272-14.377-3.814c-4.357-2.545-7.789-5.976-10.294-10.292
			c-2.506-4.316-3.758-9.019-3.758-14.107c0-3.906,0.744-7.576,2.232-11.014c1.489-3.436,3.57-6.432,6.245-8.987
			c2.675-2.557,5.725-4.533,9.15-5.933c3.426-1.398,7.002-2.099,10.729-2.099c3.655,0,7.165,0.669,10.529,2.009
			c3.364,1.337,6.385,3.272,9.06,5.805c2.674,2.531,4.774,5.534,6.299,9.006C371.305,23.042,372.067,26.853,372.067,31z
			 M365.676,31.145c0-7.09-1.258-12.636-3.775-16.638c-2.519-4.004-5.423-6.687-8.715-8.05c-3.292-1.362-6.391-2.042-9.295-2.042
			c-2.251,0-4.587,0.367-7.007,1.104c-2.42,0.735-4.775,2.08-7.062,4.033s-4.17,4.701-5.646,8.246
			c-1.476,3.546-2.214,7.922-2.214,13.131c0,4.583,0.61,8.579,1.833,11.99c1.223,3.412,2.905,6.197,5.047,8.355
			c2.143,2.159,4.502,3.714,7.08,4.667c2.578,0.952,5.259,1.429,8.042,1.429c2.493,0,5.017-0.44,7.57-1.32
			c2.555-0.88,4.89-2.315,7.008-4.306c2.118-1.988,3.837-4.688,5.156-8.102C365.017,40.229,365.676,36.063,365.676,31.145z"/>
		<path fill="#787878" d="M425.312,57.007h0.726c1.307,0,2.463-0.512,3.468-1.537c1.003-1.025,1.506-2.466,1.506-4.323V10.925
			c0-2.219-0.562-3.763-1.688-4.63c-1.126-0.868-2.463-1.326-4.012-1.374V4.306h17.101v0.615c-1.5,0.048-2.832,0.494-3.993,1.338
			c-1.162,0.844-1.743,2.399-1.743,4.666v38.884c0,2.315,0.581,3.919,1.743,4.812c1.161,0.892,3.062,1.338,5.7,1.338h4.611
			c2.009,0,3.612-0.241,4.811-0.724c1.198-0.481,2.148-1.217,2.851-2.207c0.701-0.987,1.416-2.387,2.143-4.195h0.617l-2.034,8.754
			h-31.806V57.007z"/>
		<path fill="#787878" d="M468.347,4.921V4.306h31.879v8.392h-0.508c0-4.485-3.001-6.728-9.004-6.728h-11.147v24.198h9.804
			c1.937,0,3.667-0.313,5.192-0.94c1.524-0.627,2.396-2.062,2.614-4.305h0.544v12.081h-0.544c-0.218-1.375-0.63-2.429-1.234-3.165
			c-0.605-0.735-1.204-1.224-1.798-1.465c-0.593-0.239-1.119-0.361-1.579-0.361c-0.871-0.144-1.779-0.218-2.723-0.218h-10.276
			v18.918c0,1.424,0.273,2.653,0.817,3.689c0.544,1.038,1.81,1.556,3.794,1.556h7.952c1.911,0,3.485-0.276,4.72-0.832
			c1.234-0.555,2.209-1.326,2.923-2.315c0.714-0.987,1.313-2.182,1.798-3.581h0.508l-1.852,8.356h-31.879v-0.579h0.726
			c1.138,0,2.252-0.458,3.341-1.375c1.09-0.915,1.634-2.411,1.634-4.485V10.998c0-1.641-0.37-3.062-1.107-4.269
			c-0.738-1.205-2.027-1.809-3.867-1.809H468.347z"/>
		<path fill="#787878" d="M559.851,15.374h-0.581c-0.774-3.474-2.831-6.167-6.172-8.084c-3.341-1.917-7.153-2.876-11.438-2.876
			c-2.228,0-4.617,0.345-7.171,1.031s-5.041,1.935-7.461,3.743c-2.421,1.81-4.43,4.432-6.027,7.867
			c-1.598,3.438-2.396,7.759-2.396,12.969c0,8.294,1.942,14.926,5.827,19.893c3.886,4.969,10.124,7.452,18.718,7.452
			c3.389,0,5.882-0.229,7.479-0.688c1.597-0.458,2.62-1.086,3.068-1.881c0.447-0.796,0.671-1.869,0.671-3.219v-9.766
			c0-2.316-0.502-3.848-1.507-4.596c-1.004-0.745-2.511-1.241-4.52-1.482v-0.615h17.392v0.615c-1.598,0.168-2.832,0.513-3.703,1.031
			c-0.872,0.519-1.453,1.188-1.743,2.007c-0.291,0.821-0.437,1.905-0.437,3.257v14.828c-5.325,1.424-10.819,2.135-16.483,2.135
			c-2.929,0-5.822-0.241-8.678-0.724c-2.856-0.482-5.834-1.554-8.932-3.219c-3.1-1.664-5.834-4.124-8.206-7.379
			c-3.559-4.896-5.337-10.429-5.337-16.602c0-3.594,0.671-7.091,2.015-10.491c1.344-3.398,3.279-6.442,5.81-9.133
			c2.528-2.688,5.621-4.81,9.276-6.366c3.654-1.555,7.71-2.333,12.163-2.333c1.719,0,3.401,0.115,5.047,0.344
			c1.646,0.229,4.104,0.693,7.371,1.393c1.282,0.29,2.202,0.435,2.76,0.435c1.186,0,2.057-0.592,2.613-1.772h0.581V15.374z"/>
		<path fill="#787878" d="M590.386,4.306v0.615c-1.597,0-2.952,0.446-4.065,1.338c-1.114,0.892-1.67,2.376-1.67,4.449v40.438
			c0,2.051,0.593,3.54,1.778,4.469c1.187,0.928,2.506,1.392,3.957,1.392v0.579h-16.955v-0.579c1.549,0,2.887-0.452,4.013-1.356
			c1.125-0.904,1.688-2.405,1.688-4.504V10.708c0-2.219-0.562-3.738-1.688-4.558c-1.126-0.818-2.464-1.229-4.013-1.229V4.306
			H590.386z"/>
		<path fill="#787878" d="M654.352,57.586h-11.219V48.76l-0.182-0.145c-1.55,3.594-3.867,6.222-6.953,7.885
			c-3.086,1.664-6.312,2.496-9.676,2.496c-3.801,0-7.22-0.904-10.258-2.713c-3.037-1.808-5.271-4.039-6.698-6.691
			c-1.017-1.881-1.659-3.84-1.925-5.877c-0.267-2.038-0.399-4.154-0.399-6.35V10.853c0-1.592-0.321-2.93-0.962-4.015
			c-0.642-1.086-2.173-1.725-4.593-1.917V4.306h16.811v0.615c-2.469,0.289-4.043,1-4.72,2.134c-0.679,1.134-1.017,2.399-1.017,3.798
			v26.079c0,5.305,0.544,9.224,1.634,11.756c1.161,2.7,2.904,4.811,5.228,6.33c2.324,1.519,4.961,2.279,7.916,2.279
			c1.234,0,2.698-0.218,4.393-0.652c1.694-0.434,3.279-1.156,4.757-2.169c4.43-3.015,6.645-7.85,6.645-14.506V10.853
			c0-1.47-0.34-2.772-1.017-3.906c-0.678-1.134-2.275-1.81-4.793-2.025V4.306h17.102v0.615c-2.469,0.121-4.055,0.808-4.757,2.062
			s-1.053,2.52-1.053,3.799v40.365c0,1.399,0.236,2.502,0.708,3.31c0.473,0.81,1.125,1.381,1.961,1.719
			c0.835,0.338,1.857,0.615,3.067,0.832V57.586z"/>
		<path fill="#787878" d="M722.874,4.306v0.615c-1.017,0.121-1.742,0.223-2.178,0.308c-0.438,0.084-0.921,0.331-1.453,0.741
			c-0.823,0.628-1.338,1.218-1.543,1.771c-0.206,0.555-0.333,1.52-0.381,2.895c-0.072,0.217-0.072,0.434,0,0.65l1.852,39.571
			c0.049,1.664,0.447,3.099,1.198,4.305c0.75,1.207,2.384,1.82,4.901,1.845v0.579h-17.319v-0.579
			c2.275-0.241,3.812-0.898,4.611-1.971c0.799-1.073,1.138-2.744,1.017-5.011L711.728,9.08h-0.146l-18.88,48.506l-17.864-46.733
			h-0.145l-1.925,37.763c-0.097,2.075,0.03,3.684,0.382,4.828c0.35,1.147,0.913,1.966,1.688,2.46
			c0.774,0.495,1.925,0.862,3.449,1.104v0.579h-13.47v-0.579c1.718-0.024,3.025-0.434,3.921-1.229s1.482-1.791,1.761-2.984
			s0.49-2.826,0.635-4.901l2.144-39.064c0-0.146-0.146-0.404-0.437-0.776c-0.291-0.375-0.647-0.749-1.07-1.123
			c-0.425-0.374-0.83-0.669-1.217-0.886c-0.823-0.506-1.537-0.801-2.143-0.887c-0.604-0.084-1.452-0.162-2.541-0.234V4.306h12.417
			l16.556,43.586l16.812-43.586H722.874z"/>
		<path fill="#787878" d="M776.091,53.137V10.853c0-3.834-1.912-5.811-5.736-5.932V4.306h16.884v0.615
			c-1.598,0.048-2.937,0.53-4.013,1.446c-1.077,0.918-1.616,2.412-1.616,4.485v43.694c0,2.436-0.332,4.521-0.998,6.259
			c-0.666,1.735-1.543,3.109-2.632,4.122c-1.09,1.014-2.27,1.736-3.54,2.172c-1.271,0.434-2.561,0.65-3.867,0.65
			c-1.477,0-2.777-0.23-3.903-0.688c-1.125-0.459-2.082-1.02-2.869-1.683c-0.785-0.663-1.591-1.453-2.414-2.368l0.363-0.398
			c2.009,1.64,4.235,2.46,6.681,2.46c3.316,0,5.422-1.146,6.318-3.437C775.644,59.346,776.091,56.513,776.091,53.137z"/>
		<path fill="#787878" d="M854.139,4.921V4.306h17.537c2.928,0,5.513,0.397,7.751,1.194c2.239,0.795,4.104,1.88,5.592,3.255
			c1.489,1.374,2.602,2.924,3.341,4.647c0.737,1.725,1.107,3.54,1.107,5.445c0,1.855-0.345,3.646-1.035,5.371
			c-0.689,1.724-1.773,3.255-3.25,4.593s-3.412,2.405-5.809,3.201s-5.156,1.193-8.278,1.193c-0.993,0-2.905-0.145-5.737-0.435
			v18.375c0,3.787,1.937,5.739,5.81,5.86v0.579h-17.028v-0.579c1.67-0.049,3.044-0.525,4.12-1.429
			c1.077-0.903,1.616-2.381,1.616-4.432V10.853c0-1.229-0.194-2.253-0.581-3.075c-0.388-0.818-0.841-1.403-1.361-1.753
			s-1.102-0.609-1.742-0.778c-0.643-0.168-1.084-0.277-1.326-0.325H854.139z M865.357,6.187V31.29
			c1.864,0.337,3.704,0.505,5.519,0.505c3.462,0,6.396-0.886,8.806-2.657c2.408-1.772,3.612-5.059,3.612-9.856
			c0-3.956-1.059-7.204-3.177-9.748c-2.119-2.545-5.332-3.817-9.64-3.817C868.807,5.716,867.101,5.873,865.357,6.187z"/>
		<path fill="#787878" d="M1005.636,4.306v0.615c-1.355,0.168-2.427,0.429-3.213,0.777c-0.787,0.351-1.398,1.037-1.834,2.062
			c-0.436,1.025-0.653,2.501-0.653,4.431v46.733h-0.363l-41.064-45.647v32.771c0,2.725,0.108,4.752,0.326,6.077
			c0.218,1.326,0.532,2.278,0.944,2.857c0.895,1.254,2.456,1.93,4.684,2.025v0.579h-13.397v-0.579
			c1.5-0.073,2.669-0.392,3.503-0.958c0.835-0.567,1.429-1.604,1.779-3.111c0.351-1.506,0.527-3.78,0.527-6.818V11.358l-1.781-1.989
			c-1.572-1.784-2.831-2.913-3.774-3.382c-0.944-0.47-2.119-0.826-3.522-1.066V4.306h10.058l40.448,45.142V15.049
			c0-2.581-0.104-4.509-0.309-5.788c-0.206-1.276-0.751-2.302-1.635-3.074c-0.883-0.771-2.269-1.193-4.157-1.266V4.306H1005.636z"/>
		<path fill="#787878" d="M151.392,16.242h-0.618c-0.46-2.604-1.688-4.811-3.685-6.619c-1.997-1.809-4.291-3.129-6.881-3.961
			c-2.589-0.832-5.009-1.248-7.26-1.248c-3.075,0-5.961,0.646-8.66,1.936s-5.029,3.11-6.989,5.461
			c-1.961,2.352-3.485,5.174-4.575,8.464c-1.089,3.292-1.634,6.867-1.634,10.726c0,3.738,0.526,7.203,1.58,10.398
			c1.053,3.196,2.59,5.969,4.611,8.32c2.021,2.351,4.363,4.129,7.026,5.335c2.662,1.206,5.615,1.808,8.858,1.808
			c2.71,0,5.688-0.548,8.933-1.646c3.243-1.097,6.172-2.924,8.786-5.479v2.062c-3.219,2.482-6.167,4.304-8.841,5.462
			c-2.674,1.156-6.008,1.735-10.002,1.735c-4.212,0-8.055-0.766-11.528-2.297c-3.474-1.53-6.408-3.599-8.805-6.203
			s-4.212-5.534-5.446-8.79c-1.234-3.255-1.852-6.606-1.852-10.056c0-5.184,1.283-10.001,3.849-14.449
			c2.565-4.449,6.039-7.969,10.421-10.562c4.38-2.593,9.137-3.89,14.27-3.89c3.17,0,6.547,0.471,10.13,1.41l3.775,1.05
			c0.727,0.145,1.344,0.217,1.852,0.217c0.944,0,1.573-0.139,1.889-0.416c0.314-0.276,0.557-0.777,0.727-1.5h0.58L151.392,16.242z"
			/>
		<path fill="#787878" d="M382.213,57.007h0.726c1.307,0,2.463-0.512,3.468-1.537c1.003-1.025,1.506-2.466,1.506-4.323V10.925
			c0-2.219-0.562-3.763-1.688-4.63c-1.126-0.868-2.463-1.326-4.012-1.374V4.306h17.101v0.615c-1.5,0.048-2.832,0.494-3.993,1.338
			c-1.162,0.844-1.743,2.399-1.743,4.666v38.884c0,2.315,0.581,3.919,1.743,4.812c1.161,0.892,3.062,1.338,5.7,1.338h4.611
			c2.009,0,3.612-0.241,4.811-0.724c1.198-0.481,2.148-1.217,2.851-2.207c0.701-0.987,1.416-2.387,2.143-4.195h0.617l-2.034,8.754
			h-31.806V57.007z"/>
		<path fill="#787878" d="M75.939,3.654l16.012,45.647c0.848,2.364,1.646,4.076,2.396,5.137c0.75,1.062,1.471,1.73,2.16,2.008
			c0.69,0.277,1.567,0.465,2.633,0.561v0.579H81.676v-0.579c1.791,0,3.171-0.169,4.14-0.507c0.968-0.337,1.452-1.252,1.452-2.749
			c0-0.819-0.23-1.917-0.69-3.291c-0.097-0.192-0.145-0.338-0.145-0.435l-4.757-14.143H63.159L58.91,48.977
			c-0.58,1.785-0.871,3.22-0.871,4.305c0,1.496,0.375,2.49,1.126,2.984c0.75,0.494,1.815,0.741,3.195,0.741v0.579H49.797v-0.579
			c1.792-0.169,3.226-0.85,4.303-2.044s2.016-3.007,2.814-5.443L72.018,3.654H75.939z M63.776,33.967h17.028L72.091,8.682h-0.146
			L63.776,33.967z"/>
		<path fill="#787878" d="M820.587,3.654l16.012,45.647c0.848,2.364,1.646,4.076,2.396,5.137c0.75,1.062,1.471,1.73,2.16,2.008
			c0.69,0.277,1.567,0.465,2.633,0.561v0.579h-17.465v-0.579c1.791,0,3.171-0.169,4.14-0.507c0.968-0.337,1.452-1.252,1.452-2.749
			c0-0.819-0.23-1.917-0.69-3.291c-0.097-0.192-0.145-0.338-0.145-0.435l-4.757-14.143h-18.517l-4.249,13.094
			c-0.58,1.785-0.871,3.22-0.871,4.305c0,1.496,0.375,2.49,1.126,2.984c0.75,0.494,1.815,0.741,3.195,0.741v0.579h-12.563v-0.579
			c1.792-0.169,3.226-0.85,4.303-2.044s2.016-3.007,2.814-5.443l15.104-45.865H820.587z M808.424,33.967h17.028l-8.714-25.285
			h-0.146L808.424,33.967z"/>
		<path fill="#787878" d="M917.187,3.654l16.012,45.647c0.848,2.364,1.646,4.076,2.396,5.137c0.75,1.062,1.471,1.73,2.16,2.008
			c0.69,0.277,1.567,0.465,2.633,0.561v0.579h-17.465v-0.579c1.791,0,3.171-0.169,4.14-0.507c0.968-0.337,1.452-1.252,1.452-2.749
			c0-0.819-0.23-1.917-0.69-3.291c-0.097-0.192-0.145-0.338-0.145-0.435l-4.757-14.143h-18.517l-4.249,13.094
			c-0.58,1.785-0.871,3.22-0.871,4.305c0,1.496,0.375,2.49,1.126,2.984c0.75,0.494,1.815,0.741,3.195,0.741v0.579h-12.563v-0.579
			c1.792-0.169,3.226-0.85,4.303-2.044s2.016-3.007,2.814-5.443l15.104-45.865H917.187z M905.023,33.967h17.028l-8.714-25.285
			h-0.146L905.023,33.967z"/>
	</g>
	<g>
		<path fill="#606060" d="M363.48,10.563c-2.675-2.532-5.695-4.468-9.06-5.805c-2.939-1.17-5.99-1.829-9.151-1.977
			c-3.235,0.151-6.354,0.841-9.358,2.066c-3.425,1.399-6.475,3.376-9.15,5.933c-2.674,2.556-4.755,5.552-6.245,8.987
			c-1.488,3.438-2.232,7.107-2.232,11.014c0,5.089,1.252,9.791,3.758,14.107c2.505,4.316,5.937,7.747,10.294,10.292
			c3.97,2.316,8.306,3.566,12.999,3.771c4.667-0.205,8.958-1.455,12.862-3.771c4.284-2.545,7.667-5.963,10.148-10.255
			c2.48-4.292,3.722-8.936,3.722-13.927c0-4.147-0.763-7.958-2.288-11.431C368.255,16.098,366.154,13.095,363.48,10.563z
			 M366.448,43.642c-1.319,3.413-3.038,6.113-5.156,8.102c-2.118,1.99-4.453,3.426-7.008,4.306c-2.554,0.88-5.077,1.32-7.57,1.32
			c-0.467,0-0.927-0.033-1.388-0.06c-0.455,0.028-0.909,0.06-1.362,0.06c-2.783,0-5.464-0.477-8.042-1.429
			c-2.578-0.953-4.938-2.508-7.08-4.667c-2.142-2.158-3.824-4.943-5.047-8.355c-1.223-3.411-1.833-7.407-1.833-11.99
			c0-5.209,0.738-9.585,2.214-13.131c1.476-3.545,3.359-6.293,5.646-8.246s4.642-3.298,7.062-4.033
			c2.42-0.736,4.756-1.104,7.007-1.104c0.453,0,0.912,0.022,1.374,0.056c0.461-0.029,0.922-0.056,1.376-0.056
			c2.904,0,6.003,0.681,9.295,2.042c3.292,1.364,6.196,4.046,8.715,8.05c2.517,4.002,3.775,9.548,3.775,16.638
			C368.426,36.063,367.767,40.229,366.448,43.642z"/>
		<path fill="#606060" d="M957.688,12.315v34.021c0,2.725-0.037,5.124,0.119,6.526c0.203,1.828,0.487,2.479,1,3.155
			c0.875,1.157,2.406,1.279,5.653,1.279h0.001v-0.29c-2.228-0.096-3.789-0.771-4.684-2.025c-0.412-0.579-0.727-1.531-0.944-2.857
			c-0.218-1.325-0.326-3.353-0.326-6.077V13.276L957.688,12.315z"/>
		<path fill="#606060" d="M304.978,5.011c-0.315,0.277-0.944,0.416-1.889,0.416c-0.508,0-1.125-0.072-1.852-0.217l-3.775-1.05
			c-3.334-0.874-6.467-1.316-8.849-1.363c-4.573,0.226-8.842,1.5-12.801,3.843c-4.382,2.593-7.855,6.112-10.421,10.562
			c-2.565,4.448-3.849,9.266-3.849,14.449c0,3.449,0.617,6.801,1.852,10.056c1.234,3.256,3.05,6.186,5.446,8.79
			s5.331,4.673,8.805,6.203c2.593,1.144,6.256,1.809,9.833,1.809c4.417,0,7.056-0.482,10.137-1.797
			c1.596-0.68,4.434-2.43,7.653-4.912v-2.062c-2.614,2.556-5.543,4.383-8.786,5.479c-3.244,1.098-6.222,1.646-8.933,1.646
			c-3.243,0-6.196-0.602-8.858-1.808c-2.663-1.206-5.006-2.984-7.026-5.335c-2.021-2.352-3.558-5.124-4.611-8.32
			c-1.053-3.195-1.58-6.66-1.58-10.398c0-3.858,0.545-7.434,1.634-10.726c1.09-3.29,2.614-6.112,4.575-8.464
			c1.961-2.351,4.29-4.171,6.989-5.461s5.585-1.936,8.66-1.936c2.804,0,5.595,0.291,8.403,0.973
			c3.432,0.834,5.604,1.817,7.275,3.678c1.75,1.948,2.167,3.417,2.438,7.177h0.328l0.508-12.731h-0.58
			C305.534,4.233,305.292,4.734,304.978,5.011z"/>
		<path fill="#606060" d="M150.593,5.011c-0.315,0.277-0.944,0.416-1.889,0.416c-0.508,0-1.125-0.072-1.852-0.217l-3.775-1.05
			c-3.334-0.874-6.467-1.316-8.849-1.363c-4.573,0.226-8.842,1.5-12.801,3.843c-4.382,2.593-7.855,6.112-10.421,10.562
			c-2.565,4.448-3.849,9.266-3.849,14.449c0,3.449,0.617,6.801,1.852,10.056c1.234,3.256,3.05,6.186,5.446,8.79
			s5.331,4.673,8.805,6.203c2.593,1.144,6.256,1.809,9.833,1.809c4.417,0,7.056-0.482,10.137-1.797
			c1.596-0.68,4.434-2.43,7.653-4.912v-2.062c-2.614,2.556-5.543,4.383-8.786,5.479c-3.244,1.098-6.222,1.646-8.933,1.646
			c-3.243,0-6.196-0.602-8.858-1.808c-2.663-1.206-5.006-2.984-7.026-5.335c-2.021-2.352-3.558-5.124-4.611-8.32
			c-1.053-3.195-1.58-6.66-1.58-10.398c0-3.858,0.544-7.434,1.634-10.726c1.09-3.29,2.614-6.112,4.575-8.464
			c1.96-2.351,4.29-4.171,6.989-5.461s5.585-1.936,8.66-1.936c2.804,0,5.595,0.291,8.403,0.973c3.432,0.834,5.604,1.817,7.275,3.678
			c1.75,1.948,2.167,3.417,2.438,7.177h0.328l0.508-12.731h-0.58C151.149,4.233,150.907,4.734,150.593,5.011z"/>
		<path fill="#606060" d="M636.488,54.476c-1.478,1.013-3.062,1.735-4.757,2.169c-1.152,0.296-2.188,0.482-3.128,0.577
			c-0.442,0.046-0.87,0.075-1.265,0.075c-2.955,0-5.592-0.761-7.916-2.279c-2.323-1.52-4.066-3.63-5.228-6.33
			c-1.09-2.532-1.634-6.451-1.634-11.756V10.853c0-1.398,0.338-2.664,1.017-3.798c0.677-1.134,2.251-1.845,4.72-2.134V4.306h-16.811
			v0.279c3.346,0,5.191,0.5,6.669,1.71c1.101,0.9,1.636,2.411,1.636,4.63v26.44c0,2.195,0.133,4.312,0.399,6.35
			c0.266,2.037,0.908,3.996,1.925,5.877c1.428,2.652,3.661,4.884,6.698,6.691c2.651,1.578,5.593,2.467,8.824,2.668
			c2.891-0.189,5.679-1.005,8.359-2.451c0.325-0.175,0.64-0.365,0.945-0.564c0.291-0.186,0.571-0.385,0.847-0.59
			c0.003-0.002,0.006-0.003,0.008-0.005h-0.001c2.2-1.637,3.923-3.871,5.154-6.726l0.182-8.646
			C643.133,46.626,640.918,51.461,636.488,54.476z"/>
		<path fill="#606060" d="M695.242,48.932L678.287,4.306H665.87v0.279c3.346,0,6.138,0.389,8.062,1.809
			c1.824,1.346,2.562,2.25,3.884,5.084l-0.001-0.002l16.274,42.546L711.582,9.08l0.468-3.723L695.242,48.932z"/>
		<path fill="#606060" d="M586.32,6.259c1.113-0.892,2.469-1.338,4.065-1.338V4.306h-16.955v0.279c3.346,0,5.283,0.5,6.761,1.71
			c1.1,0.9,1.689,2.411,1.689,4.63v40.042c0,2.219,0.271,3.979,1.37,4.879c1.479,1.21,3.789,1.46,7.135,1.46v-0.299
			c-1.451,0-2.771-0.464-3.957-1.392c-1.186-0.929-1.778-2.418-1.778-4.469V10.708C584.65,8.635,585.206,7.15,586.32,6.259z"/>
		<path fill="#606060" d="M42.887,39.988c-0.338-1.218-0.835-2.345-1.488-3.382c-0.653-1.036-1.452-1.989-2.396-2.858
			c-1.041-0.963-2.154-1.747-3.34-2.35c-1.187-0.604-2.518-1.073-3.994-1.412c-1.477-0.337-3.014-0.59-4.611-0.759v-0.145
			c3.51-0.941,6.306-2.41,8.388-4.413c2.081-2.002,3.122-4.605,3.122-7.813c0-1.736-0.363-3.346-1.09-4.829
			c-0.726-1.482-1.761-2.809-3.104-3.977C33.03,6.88,31.391,5.965,29.454,5.3c-1.938-0.663-4.055-0.994-6.354-0.994H5.636v0.279
			c3.346,0,5.283,0.5,6.761,1.71c1.1,0.9,1.689,2.411,1.689,4.63v40.042c0,2.219,0.231,3.948,1.331,4.848
			c1.478,1.21,3.773,1.492,7.119,1.492h3.105c4.551,0,8.121-0.432,10.711-1.855c1.815-1.037,3.443-2.556,4.884-4.558
			c1.439-2.001,2.16-4.389,2.16-7.161C43.396,42.454,43.227,41.207,42.887,39.988z M16.854,6.086
			c1.49-0.688,3.016-0.948,4.757-0.948c2.774,0,4.649,0.46,7.212,1.739c1.316,0.659,2.376,1.528,3.345,2.637
			c0.968,1.11,1.706,2.382,2.215,3.816c0.508,1.435,0.762,2.948,0.762,4.539c0,2.051-0.381,3.799-1.144,5.246
			c-0.763,1.445-1.561,2.507-2.396,3.184c-0.836,0.675-1.641,1.205-2.415,1.591c-1.211,0.578-3.244,0.867-6.101,0.867h-6.235V6.086z
			 M37.832,51.075c-2.082,3.255-5.58,4.883-10.493,4.883c-0.547,0-1.059-0.018-1.54-0.052c-0.398,0.023-0.792,0.052-1.21,0.052
			c-2.373,0-4.128-0.313-5.265-0.94c-1.139-0.626-1.834-1.369-2.088-2.225c-0.254-0.856-0.382-1.923-0.382-3.201V29.571h5.844
			c2.891,0,6.043,0.806,8.561,1.754c1.863,0.701,3.456,1.489,4.703,2.587c1.246,1.097,2.227,2.465,2.941,4.105
			c0.713,1.64,1.07,3.472,1.07,5.498C39.974,46.312,39.259,48.832,37.832,51.075z"/>
		<path fill="#606060" d="M211.35,6.566c0.92-1.097,2.372-1.646,4.357-1.646V4.306h-17.03v0.279c3.346,0,5.283,0.5,6.761,1.71
			c1.1,0.9,1.799,2.411,1.799,4.63v40.042c0,2.219,0.235,3.979,1.335,4.879c1.478,1.21,3.789,1.46,7.135,1.46v-0.299
			c-3.825,0-5.738-1.953-5.738-5.86V10.853C209.969,9.093,210.43,7.663,211.35,6.566z"/>
		<path fill="#606060" d="M204.487,29.499v-0.814h-30.645V10.853c0-1.76,0.466-3.189,1.399-4.286
			c0.932-1.097,2.401-1.646,4.411-1.646V4.306h-17.028v0.279c3.346,0,5.283,0.5,6.761,1.71c1.1,0.9,1.688,2.411,1.688,4.63
			l0.001,40.042c0,2.219,0.344,3.979,1.443,4.879c1.478,1.21,3.789,1.46,7.135,1.46v-0.299c-1.768,0-3.177-0.512-4.229-1.537
			c-1.054-1.025-1.581-2.466-1.581-4.323V29.499H204.487z"/>
		<path fill="#606060" d="M888.359,13.402c-0.739-1.724-1.852-3.273-3.341-4.647c-1.488-1.375-3.353-2.46-5.592-3.255
			c-2.238-0.797-4.823-1.194-7.751-1.194h-17.537v0.279c3.346,0,5.191,0.5,6.669,1.71c1.1,0.9,1.817,2.411,1.817,4.63v40.042
			c0,2.219,0.308,3.979,1.407,4.879c1.479,1.21,3.789,1.46,7.135,1.46v-0.299c-3.873-0.121-5.81-2.073-5.81-5.86V32.111
			c1.042,0.107,1.957,0.193,2.75,0.261c0,0,2.899,0.227,4.481,0.349c2.422,0.188,4.5,0.047,6.784-0.708
			c2.397-0.792,4.332-1.863,5.809-3.201s2.561-2.869,3.25-4.593c0.69-1.726,1.035-3.516,1.035-5.371
			C889.467,16.942,889.097,15.127,888.359,13.402z M882.432,29.138c-2.409,1.771-5.344,2.657-8.806,2.657
			c-0.498,0-0.998-0.016-1.5-0.041c-0.409,0.027-0.826,0.041-1.25,0.041c-1.814,0-3.654-0.168-5.519-0.505V5.362
			c1.497-0.25,3.449-0.313,5.12-0.313c0.582,0,2.174,0.075,2.798,0.124c4.309,0.345,7.473,1.815,9.592,4.36
			c2.118,2.544,3.177,5.792,3.177,9.748C886.044,24.079,884.84,27.365,882.432,29.138z"/>
		<path fill="#606060" d="M649.668,6.982c0.702-1.254,2.288-1.94,4.757-2.062V4.306h-17.102v0.279c3.346,0,5.313,0.5,6.791,1.71
			c1.1,0.9,1.769,2.411,1.769,4.63v40.042c0,2.219,0.234,3.979,1.334,4.879c1.478,1.21,3.789,1.461,7.135,1.461v-0.3
			c-1.21-0.217-2.232-0.494-3.067-0.832c-0.836-0.338-1.488-0.909-1.961-1.719c-0.472-0.808-0.708-1.91-0.708-3.31V10.781
			C648.615,9.502,648.966,8.236,649.668,6.982z"/>
		<path fill="#606060" d="M720.369,55.162c-0.751-1.206-1.149-2.641-1.198-4.305l-1.852-39.571c-0.072-0.217-0.072-0.434,0-0.65
			c0.048-1.375,0.175-2.34,0.381-2.895c0.205-0.554,0.72-1.144,1.543-1.771c0.532-0.41,1.016-0.657,1.453-0.741
			c0.436-0.085,1.161-0.187,2.178-0.308V4.306l-11.222,0.007c0.379,0.199,0.726,0.429,1.048,0.694
			c1.1,0.898,1.622,2.224,1.803,4.675l1.865,41.286v-0.001c0.185,2.618,0.668,3.979,1.768,4.879c1.478,1.21,3.789,1.461,7.135,1.461
			v-0.3C722.753,56.982,721.119,56.369,720.369,55.162z"/>
		<path fill="#606060" d="M501.569,49.229c-0.484,1.399-1.084,2.594-1.798,3.581c-0.714,0.989-1.688,1.761-2.923,2.315
			c-1.234,0.556-2.809,0.832-4.72,0.832h-5.202h-2.75c-1.985,0-3.25-0.518-3.794-1.556c-0.544-1.036-0.817-2.266-0.817-3.689V30.981
			h10.276c0.943,0,1.843,0.074,2.723,0.146c0.458,0.037,1.15,0.151,1.743,0.39c0.594,0.242,1.516,0.75,2.094,1.547
			c0.56,0.771,0.984,2,1.047,3.939h0.272V24.923h-0.544c-0.218,2.243-1.09,3.678-2.614,4.305c-1.525,0.627-3.256,0.94-5.192,0.94
			h-9.804V5.138h11.147c6.298,0,9.259,1.646,9.259,7.56h0.254V7.659V4.306h-31.879v0.279c3.346,0,5.283,0.5,6.761,1.71
			c1.1,0.9,1.689,2.411,1.689,4.63v39.987c0,1.856,0.129,3.547,1.132,4.572c1.005,1.026,2.535,1.287,3.842,1.287h18.635l0.538-2.425
			l1.134-5.117H501.569z"/>
		<path fill="#606060" d="M458.843,48.832h-0.309c-0.727,1.809-1.442,3.208-2.143,4.195c-0.702,0.99-1.652,1.726-2.851,2.207
			c-1.199,0.482-2.802,0.724-4.811,0.724h-4.611c-2.639,0-4.539-0.446-5.701-1.338c-1.161-0.893-1.743-2.496-1.743-4.812V10.925
			c0-2.267,0.582-3.822,1.743-4.666c1.162-0.844,2.493-1.29,3.994-1.338V4.306h-17.101v0.279c3.346,0,5.283,0.5,6.761,1.71
			c1.1,0.9,1.688,2.411,1.688,4.63v39.987c0,1.856,0.129,3.547,1.132,4.572c1.005,1.026,2.535,1.287,3.842,1.287h18.572l0.563-2.429
			l1.281-5.511H458.843z"/>
		<path fill="#606060" d="M415.744,48.832h-0.309c-0.727,1.809-1.442,3.208-2.143,4.195c-0.702,0.99-1.652,1.726-2.851,2.207
			c-1.199,0.482-2.802,0.724-4.811,0.724h-4.611c-2.639,0-4.539-0.446-5.701-1.338c-1.161-0.893-1.743-2.496-1.743-4.812V10.925
			c0-2.267,0.582-3.822,1.743-4.666c1.162-0.844,2.493-1.29,3.994-1.338V4.306h-17.101v0.279c3.346,0,5.283,0.5,6.761,1.71
			c1.1,0.9,1.688,2.411,1.688,4.63v39.987c0,1.856,0.129,3.547,1.132,4.572c1.005,1.026,2.535,1.287,3.842,1.287h18.572l0.563-2.429
			l1.281-5.511H415.744z"/>
		<path fill="#606060" d="M548.342,35.123v0.28c3.346,0,5.357,0.5,6.836,1.709c1.1,0.9,1.94,2.412,1.94,4.63v9.84
			c0,1.35-0.224,2.423-0.671,3.219c-0.448,0.795-1.472,1.423-3.068,1.881c-1.598,0.458-4.091,0.688-7.479,0.688
			c-0.391,0-0.771-0.011-1.151-0.021c-0.512,0.013-1.038,0.021-1.599,0.021c-8.594,0-14.832-2.483-18.718-7.452
			c-3.885-4.967-5.827-11.599-5.827-19.893c0-5.21,0.799-9.531,2.396-12.969c1.598-3.436,3.606-6.058,6.027-7.867
			c2.42-1.809,4.907-3.057,7.461-3.743s4.943-1.031,7.171-1.031c2.819,0,6.32,0.452,8.608,0.972
			c3.533,0.805,5.548,1.705,7.129,3.643c1.509,1.849,1.863,3.349,2.125,6.346h0.328v-4.679V4.861V3.148h-0.581
			c-0.374,0.794-0.903,1.298-1.562,1.558l0,0c-0.136,0.053-0.276,0.094-0.421,0.13c-0.202,0.043-0.405,0.084-0.631,0.084
			c-0.558,0-1.478-0.145-2.76-0.435c-3.268-0.699-5.725-1.163-7.371-1.393c-1.293-0.18-2.616-0.268-3.954-0.307
			c-3.807,0.171-7.311,0.937-10.506,2.296c-3.655,1.557-6.748,3.678-9.276,6.366c-2.53,2.69-4.466,5.734-5.81,9.133
			c-1.344,3.4-2.015,6.897-2.015,10.491c0,6.173,1.778,11.706,5.337,16.602c2.372,3.255,5.106,5.715,8.206,7.379
			c3.098,1.665,6.075,2.736,8.932,3.219c2.468,0.418,4.965,0.643,7.487,0.699c5.114-0.119,10.09-0.817,14.924-2.11V42.033
			c0-1.352,0.146-2.436,0.437-3.257c0.29-0.819,0.871-1.488,1.743-2.007c0.871-0.519,2.105-0.863,3.703-1.031v-0.615H548.342z"/>
		<path fill="#606060" d="M674.838,55.903c-0.774-0.494-1.338-1.312-1.688-2.46c-0.352-1.145-0.479-2.753-0.382-4.828l1.925-37.763
			l-0.676-0.967l-2.106,39.019c-0.098,2.075-0.26,4.255-0.003,5.434c0.255,1.171,0.748,1.689,1.554,2.131
			c1.002,0.549,2.799,0.7,4.825,0.828v-0.29C676.763,56.766,675.612,56.398,674.838,55.903z"/>
		<path fill="#606060" d="M770.354,4.306v0.279c3.346,0,5.191,0.5,6.67,1.71c1.1,0.9,1.816,2.411,1.816,4.63v42.212
			c0,3.376-0.447,6.209-1.343,8.5c-0.896,2.29-3.002,3.437-6.318,3.437c-0.446,0-0.882-0.037-1.312-0.091
			c-0.454,0.054-0.927,0.091-1.438,0.091c-0.402,0-0.798-0.029-1.188-0.075c-0.082-0.009-0.165-0.021-0.247-0.031
			c-0.385-0.055-0.765-0.123-1.138-0.221c-1.457-0.379-2.827-1.088-4.107-2.133l-0.182,0.199c1,0.896,1.699,1.577,2.584,2.174
			c0.889,0.601,1.831,1.119,2.965,1.557c1.395,0.537,3.027,0.913,4.504,0.913c1.022,0,2.129-0.162,3.178-0.503
			c1.133-0.442,2.195-1.108,3.182-2.025c1.089-1.013,1.966-2.387,2.632-4.122c0.666-1.737,0.998-3.823,0.998-6.259V10.853
			c0-2.073,0.539-3.567,1.616-4.485c1.076-0.916,2.415-1.398,4.013-1.446V4.306H770.354z"/>
		<path fill="#606060" d="M71.94,8.697l-0.447-1.274L57.91,49.266c-0.58,1.785-0.951,3.177-1.104,4.539
			c-0.177,1.572,0.088,2.256,0.839,2.751c0.75,0.493,3.336,0.741,4.716,0.741v-0.29c-1.38,0-2.445-0.247-3.195-0.741
			c-0.751-0.494-1.126-1.488-1.126-2.984c0-1.085,0.291-2.52,0.871-4.305l4.578-14.052h17.75l-0.434-0.958H63.776L71.94,8.697z"/>
		<path fill="#606060" d="M96.508,56.446c-0.689-0.277-1.41-0.946-2.16-2.008c-0.751-1.061-1.549-2.772-2.396-5.137L75.939,3.654
			h-3.922c0.379,0.198,0.623,0.388,0.893,0.739c0.488,0.633,0.817,1.104,1.218,2.19l14.906,43.014c0.847,2.36,1.309,4.03,2.02,5.221
			c0.667,1.115,1.204,1.602,2.059,1.934c1.027,0.4,2.625,0.545,6.027,0.545v-0.29C98.075,56.911,97.198,56.724,96.508,56.446z"/>
		<path fill="#606060" d="M992.201,4.306v0.308c2.919,0,4.638,0.305,5.521,1.077c0.884,0.772,1.045,1.35,1.232,3.224
			c0.128,1.289,0.163,3.246,0.163,5.827v35.604l-0.815-0.898L957.854,4.306h-10.058v0.308c2.277,0,4.216,0.249,5.574,1.015
			c1.109,0.625,2.506,1.649,4.078,3.434l-0.006-0.016l42.493,47.225v-8.069V12.19c0-1.93,0.218-3.405,0.653-4.431
			c0.436-1.024,1.047-1.711,1.834-2.062c0.786-0.349,1.857-0.609,3.213-0.777V4.306H992.201z"/>
		<path fill="#606060" d="M816.588,8.697l-0.447-1.274l-13.583,41.843c-0.58,1.785-0.951,3.177-1.104,4.539
			c-0.177,1.572,0.088,2.256,0.839,2.751c0.75,0.493,3.336,0.741,4.716,0.741v-0.29c-1.38,0-2.445-0.247-3.195-0.741
			c-0.751-0.494-1.126-1.488-1.126-2.984c0-1.085,0.291-2.52,0.871-4.305l4.578-14.052h17.75l-0.434-0.958h-17.028L816.588,8.697z"
			/>
		<path fill="#606060" d="M841.155,56.446c-0.689-0.277-1.41-0.946-2.16-2.008c-0.751-1.061-1.549-2.772-2.396-5.137L820.587,3.654
			h-3.922c0.379,0.198,0.623,0.388,0.893,0.739c0.488,0.633,0.817,1.104,1.218,2.19l14.906,43.014
			c0.847,2.36,1.309,4.03,2.021,5.221c0.666,1.115,1.204,1.602,2.059,1.934c1.027,0.4,2.625,0.545,6.027,0.545v-0.29
			C842.723,56.911,841.846,56.724,841.155,56.446z"/>
		<path fill="#606060" d="M913.188,8.697l-0.447-1.274l-13.583,41.843c-0.58,1.785-0.951,3.177-1.104,4.539
			c-0.177,1.572,0.088,2.256,0.839,2.751c0.75,0.493,3.336,0.741,4.716,0.741v-0.29c-1.38,0-2.445-0.247-3.195-0.741
			c-0.751-0.494-1.126-1.488-1.126-2.984c0-1.085,0.291-2.52,0.871-4.305l4.578-14.052h17.75l-0.434-0.958h-17.028L913.188,8.697z"
			/>
		<path fill="#606060" d="M937.755,56.446c-0.689-0.277-1.41-0.946-2.16-2.008c-0.751-1.061-1.549-2.772-2.396-5.137L917.187,3.654
			h-3.922c0.379,0.198,0.623,0.388,0.893,0.739c0.488,0.633,0.817,1.104,1.218,2.19l14.906,43.014
			c0.847,2.36,1.309,4.03,2.021,5.221c0.666,1.115,1.204,1.602,2.059,1.934c1.027,0.4,2.625,0.545,6.027,0.545v-0.29
			C939.322,56.911,938.445,56.724,937.755,56.446z"/>
	</g>
</g>
</svg>
